<svg width="420" height="595" viewBox="0 0 420 595" fill="none" xmlns="http://www.w3.org/2000/svg">
<g clip-path="url(#clip0_24_1134)">
<rect width="420" height="595" fill="white" style="fill:white;fill-opacity:1;"/>
<path d="M-21.767 -21.3136L57.6474 20.7947L-5.1101 67.017L-21.767 -21.3136Z" fill="#1331A1" style="fill:#1331A1;fill:color(display-p3 0.0745 0.1922 0.6314);fill-opacity:1;"/>
<path d="M-9.68282 79.4735L79.7841 70.7887L52.9359 143.961L-9.68282 79.4735Z" fill="#1331A1" style="fill:#1331A1;fill:color(display-p3 0.0745 0.1922 0.6314);fill-opacity:1;"/>
<path d="M26.233 -55.3136L105.647 -13.2053L42.8899 33.017L26.233 -55.3136Z" fill="#A2CA02" style="fill:#A2CA02;fill:color(display-p3 0.6353 0.7922 0.0078);fill-opacity:1;"/>
<path d="M-53.4992 88.2459L35.9677 79.5612L9.11954 152.733L-53.4992 88.2459Z" fill="#A2CA02" style="fill:#A2CA02;fill:color(display-p3 0.6353 0.7922 0.0078);fill-opacity:1;"/>
<path d="M-40.1871 93.0775L18.7684 25.2247L49.6232 96.7997L-40.1871 93.0775Z" fill="#F31366" style="fill:#F31366;fill:color(display-p3 0.9529 0.0745 0.4000);fill-opacity:1;"/>
<path d="M39.6528 97.0104L51.3978 7.89361L116.616 50.5734L39.6528 97.0104Z" fill="#F31366" style="fill:#F31366;fill:color(display-p3 0.9529 0.0745 0.4000);fill-opacity:1;"/>
<path d="M32.5786 66.1278L5.01798 -19.4302L82.2321 -8.80077L32.5786 66.1278Z" fill="#F8B62F" style="fill:#F8B62F;fill:color(display-p3 0.9725 0.7137 0.1843);fill-opacity:1;"/>
<path d="M11.3024 104.837L-58.8817 48.6775L11.3854 14.9501L11.3024 104.837Z" fill="#F8B62F" style="fill:#F8B62F;fill:color(display-p3 0.9725 0.7137 0.1843);fill-opacity:1;"/>
<path d="M346.233 517.686L425.647 559.795L362.89 606.017L346.233 517.686Z" fill="#1331A1" style="fill:#1331A1;fill:color(display-p3 0.0745 0.1922 0.6314);fill-opacity:1;"/>
<path d="M358.317 618.473L447.784 609.789L420.936 682.961L358.317 618.473Z" fill="#1331A1" style="fill:#1331A1;fill:color(display-p3 0.0745 0.1922 0.6314);fill-opacity:1;"/>
<path d="M394.233 483.686L473.647 525.795L410.89 572.017L394.233 483.686Z" fill="#A2CA02" style="fill:#A2CA02;fill:color(display-p3 0.6353 0.7922 0.0078);fill-opacity:1;"/>
<path d="M314.501 627.246L403.968 618.561L377.12 691.733L314.501 627.246Z" fill="#A2CA02" style="fill:#A2CA02;fill:color(display-p3 0.6353 0.7922 0.0078);fill-opacity:1;"/>
<path d="M327.813 632.078L386.768 564.225L417.623 635.8L327.813 632.078Z" fill="#F31366" style="fill:#F31366;fill:color(display-p3 0.9529 0.0745 0.4000);fill-opacity:1;"/>
<path d="M407.653 636.01L419.398 546.894L484.616 589.573L407.653 636.01Z" fill="#F31366" style="fill:#F31366;fill:color(display-p3 0.9529 0.0745 0.4000);fill-opacity:1;"/>
<path d="M400.579 605.128L373.018 519.57L450.232 530.199L400.579 605.128Z" fill="#F8B62F" style="fill:#F8B62F;fill:color(display-p3 0.9725 0.7137 0.1843);fill-opacity:1;"/>
<path d="M379.302 643.837L309.118 587.677L379.385 553.95L379.302 643.837Z" fill="#F8B62F" style="fill:#F8B62F;fill:color(display-p3 0.9725 0.7137 0.1843);fill-opacity:1;"/>
</g>
<defs>
<clipPath id="clip0_24_1134">
<rect width="420" height="595" fill="white" style="fill:white;fill-opacity:1;"/>
</clipPath>
</defs>
</svg>
