<svg width="35" height="35" viewBox="0 0 35 35" fill="none" xmlns="http://www.w3.org/2000/svg">
<path d="M35 17.5C35 17.5 28.4375 5.46875 17.5 5.46875C6.5625 5.46875 0 17.5 0 17.5C0 17.5 6.5625 29.5312 17.5 29.5312C28.4375 29.5312 35 17.5 35 17.5ZM2.56594 17.5C3.62202 15.8913 4.83868 14.3939 6.19719 13.0309C9.0125 10.2112 12.8625 7.65625 17.5 7.65625C22.1375 7.65625 25.9853 10.2112 28.805 13.0309C30.1635 14.3939 31.3802 15.8913 32.4362 17.5C32.3108 17.6896 32.1686 17.8996 32.0097 18.13C31.2769 19.18 30.1941 20.58 28.805 21.9691C25.9853 24.7887 22.1353 27.3438 17.5 27.3438C12.8647 27.3438 9.01469 24.7887 6.195 21.9691C4.83649 20.6061 3.62202 19.1087 2.56594 17.5Z" fill="#0C0C0C" style="fill:#0C0C0C;fill:color(display-p3 0.0481 0.0481 0.0481);fill-opacity:1;"/>
<path d="M17.5 12.0312C16.0496 12.0312 14.6586 12.6074 13.633 13.633C12.6074 14.6586 12.0312 16.0496 12.0312 17.5C12.0312 18.9504 12.6074 20.3414 13.633 21.367C14.6586 22.3926 16.0496 22.9688 17.5 22.9688C18.9504 22.9688 20.3414 22.3926 21.367 21.367C22.3926 20.3414 22.9688 18.9504 22.9688 17.5C22.9688 16.0496 22.3926 14.6586 21.367 13.633C20.3414 12.6074 18.9504 12.0312 17.5 12.0312ZM9.84375 17.5C9.84375 15.4694 10.6504 13.522 12.0862 12.0862C13.522 10.6504 15.4694 9.84375 17.5 9.84375C19.5306 9.84375 21.478 10.6504 22.9138 12.0862C24.3496 13.522 25.1562 15.4694 25.1562 17.5C25.1562 19.5306 24.3496 21.478 22.9138 22.9138C21.478 24.3496 19.5306 25.1562 17.5 25.1562C15.4694 25.1562 13.522 24.3496 12.0862 22.9138C10.6504 21.478 9.84375 19.5306 9.84375 17.5Z" fill="#0C0C0C" style="fill:#0C0C0C;fill:color(display-p3 0.0481 0.0481 0.0481);fill-opacity:1;"/>
</svg>
