<svg width="35" height="35" viewBox="0 0 35 35" fill="none" xmlns="http://www.w3.org/2000/svg">
<g clip-path="url(#clip0_54_704)">
<path d="M29.2229 24.5831C32.9438 21.2625 35.0001 17.5 35.0001 17.5C35.0001 17.5 28.4376 5.46875 17.5001 5.46875C15.399 5.47424 13.3216 5.91208 11.397 6.755L13.0813 8.44156C14.4983 7.92804 15.993 7.66239 17.5001 7.65625C22.1376 7.65625 25.9854 10.2112 28.8051 13.0309C30.1636 14.3939 31.3803 15.8913 32.4363 17.5C32.3109 17.6896 32.1687 17.8996 32.0098 18.13C31.277 19.18 30.1942 20.58 28.8051 21.9691C28.4449 22.3307 28.0679 22.6851 27.6742 23.0322L29.2229 24.5831Z" fill="black" style="fill:black;fill-opacity:1;"/>
<path d="M24.7121 20.0727C25.2003 18.7073 25.2907 17.2314 24.9728 15.8167C24.6549 14.402 23.9419 13.1066 22.9166 12.0813C21.8913 11.056 20.5959 10.343 19.1812 10.0251C17.7665 9.70724 16.2906 9.79764 14.9252 10.2858L16.7255 12.0861C17.5662 11.9658 18.4234 12.0429 19.2291 12.3113C20.0348 12.5798 20.7669 13.0322 21.3674 13.6327C21.9679 14.2332 22.4203 14.9653 22.6888 15.771C22.9572 16.5767 23.0343 17.4339 22.914 18.2745L24.7121 20.0727ZM18.2743 22.9142L20.0724 24.7124C18.7071 25.2005 17.2312 25.2909 15.8165 24.973C14.4018 24.6552 13.1064 23.9421 12.0811 22.9168C11.0558 21.8915 10.3427 20.5961 10.0249 19.1814C9.70699 17.7667 9.7974 16.2908 10.2855 14.9255L12.0859 16.7258C11.9655 17.5665 12.0426 18.4236 12.3111 19.2293C12.5795 20.035 13.0319 20.7671 13.6324 21.3676C14.233 21.9681 14.9651 22.4206 15.7708 22.689C16.5765 22.9574 17.4336 23.0346 18.2743 22.9142Z" fill="black" style="fill:black;fill-opacity:1;"/>
<path d="M7.32812 11.9656C6.93437 12.3156 6.55667 12.6707 6.195 13.0309C4.83649 14.3939 3.61984 15.8912 2.56375 17.5L2.99031 18.13C3.72312 19.18 4.80594 20.58 6.195 21.969C9.01469 24.7887 12.8647 27.3437 17.5 27.3437C19.0663 27.3437 20.5406 27.0528 21.9188 26.5562L23.6031 28.245C21.6785 29.0879 19.6011 29.5257 17.5 29.5312C6.5625 29.5312 0 17.5 0 17.5C0 17.5 2.05406 13.7353 5.77719 10.4168L7.32594 11.9678L7.32812 11.9656ZM29.8506 31.3993L3.60063 5.14934L5.14938 3.60059L31.3994 29.8506L29.8506 31.3993Z" fill="black" style="fill:black;fill-opacity:1;"/>
</g>
<defs>
<clipPath id="clip0_54_704">
<rect width="35" height="35" fill="white" style="fill:white;fill-opacity:1;"/>
</clipPath>
</defs>
</svg>
